<svg width="20" height="20" viewBox="0 0 20 20" fill="none" xmlns="http://www.w3.org/2000/svg">
<path d="M9.47917 20C9.28819 18.8715 8.78472 17.6562 7.96875 16.3542C7.15278 15.0347 5.98958 13.8108 4.47917 12.6823C2.98611 11.5538 1.49306 10.8333 0 10.5208V9.42708C1.47569 9.07986 2.89062 8.4375 4.24479 7.5C5.61632 6.54514 6.76215 5.3993 7.68229 4.0625C8.61979 2.69097 9.21875 1.3368 9.47917 0H10.5729C10.7292 0.868055 11.0417 1.76215 11.5104 2.68229C11.9792 3.58507 12.5781 4.45312 13.3073 5.28646C14.0538 6.10243 14.8872 6.84028 15.8073 7.5C17.1788 8.47222 18.5764 9.11458 20 9.42708V10.5208C19.0451 10.7118 18.0556 11.1024 17.0312 11.6927C16.0243 12.283 15.0868 12.9861 14.2187 13.8021C13.3507 14.6007 12.6389 15.4427 12.0833 16.3281C11.2674 17.6302 10.7639 18.8542 10.5729 20H9.47917Z" fill="#B9975F"/>
</svg>
